<?xml version="1.0" encoding="UTF-8" standalone="no"?>
<!DOCTYPE svg PUBLIC "-//W3C//DTD SVG 1.1//EN" "http://www.w3.org/Graphics/SVG/1.1/DTD/svg11.dtd">
<svg version="1.1" xmlns="http://www.w3.org/2000/svg" xmlns:xlink="http://www.w3.org/1999/xlink" preserveAspectRatio="xMidYMid meet" viewBox="0 0 639 162" width="639" height="162"><defs><path d="M479.09 80.73C479.09 125.49 514.9 161.77 559.09 161.77C603.27 161.77 639.09 125.49 639.09 80.73C639.09 35.98 603.27 -0.3 559.09 -0.3C514.9 -0.3 479.09 35.98 479.09 80.73Z" id="b28NAoBcKL"></path><path d="M479.09 80.73C479.09 125.49 514.9 161.77 559.09 161.77C603.27 161.77 639.09 125.49 639.09 80.73C639.09 35.98 603.27 -0.3 559.09 -0.3C514.9 -0.3 479.09 35.98 479.09 80.73Z" id="eu1cATwSW"></path><path d="M558 -0.37C558 96.88 558 150.91 558 161.71C558 161.71 558 161.71 558 161.71C223.2 161.71 37.2 161.71 0 161.71C0 161.71 0 161.71 0 161.71C0 64.47 0 10.44 0 -0.37C0 -0.37 0 -0.37 0 -0.37C334.8 -0.37 520.8 -0.37 558 -0.37C558 -0.37 558 -0.37 558 -0.37Z" id="atLUeGZuW"></path><path d="M558 -0.37C558 96.88 558 150.91 558 161.71C558 161.71 558 161.71 558 161.71C223.2 161.71 37.2 161.71 0 161.71C0 161.71 0 161.71 0 161.71C0 64.47 0 10.44 0 -0.37C0 -0.37 0 -0.37 0 -0.37C334.8 -0.37 520.8 -0.37 558 -0.37C558 -0.37 558 -0.37 558 -0.37Z" id="a5SfAmIep"></path><path d="M558 1.84C558 96.3 558 148.78 558 159.28C558 159.28 558 159.28 558 159.28C223.2 159.28 37.2 159.28 0 159.28C0 159.28 0 159.28 0 159.28C0 64.81 0 12.33 0 1.84C0 1.84 0 1.84 0 1.84C334.8 1.84 520.8 1.84 558 1.84C558 1.84 558 1.84 558 1.84Z" id="e14XlxynP4"></path><linearGradient id="gradienta3GkOjAhUF" gradientUnits="userSpaceOnUse" x1="222.29" y1="-109.79" x2="437.36" y2="-85.94"><stop style="stop-color: #fff841;stop-opacity: 1" offset="0%"></stop><stop style="stop-color: #fffa42;stop-opacity: 1" offset="33.56704531994784%"></stop><stop style="stop-color: #fff600;stop-opacity: 1" offset="100%"></stop></linearGradient><path d="M558 1.84C558 96.3 558 148.78 558 159.28C558 159.28 558 159.28 558 159.28C223.2 159.28 37.2 159.28 0 159.28C0 159.28 0 159.28 0 159.28C0 64.81 0 12.33 0 1.84C0 1.84 0 1.84 0 1.84C334.8 1.84 520.8 1.84 558 1.84C558 1.84 558 1.84 558 1.84Z" id="ahjNlc5th"></path><linearGradient id="gradienta3iAfa3XTR" gradientUnits="userSpaceOnUse" x1="549.65" y1="128.86" x2="30.9" y2="25.14"><stop style="stop-color: #fcff00;stop-opacity: 1" offset="0%"></stop><stop style="stop-color: #fdff4a;stop-opacity: 1" offset="92.86852043044705%"></stop><stop style="stop-color: #dddd24;stop-opacity: 1" offset="100%"></stop></linearGradient><path d="M479.45 80.56C479.45 124.04 514.82 159.28 558.45 159.28C602.08 159.28 637.45 124.04 637.45 80.56C637.45 37.08 602.08 1.84 558.45 1.84C514.82 1.84 479.45 37.08 479.45 80.56Z" id="b8W15dP7r"></path><path d="M479.45 80.56C479.45 124.04 514.82 159.28 558.45 159.28C602.08 159.28 637.45 124.04 637.45 80.56C637.45 37.08 602.08 1.84 558.45 1.84C514.82 1.84 479.45 37.08 479.45 80.56Z" id="a2mkMugy0b"></path></defs><g><g><g><use xlink:href="#b28NAoBcKL" opacity="1" fill="#000000" fill-opacity="1"></use><g><use xlink:href="#b28NAoBcKL" opacity="1" fill-opacity="0" stroke="#000000" stroke-width="1" stroke-opacity="0"></use></g></g><g><use xlink:href="#eu1cATwSW" opacity="1" fill="#000000" fill-opacity="0"></use><g><use xlink:href="#eu1cATwSW" opacity="1" fill-opacity="0" stroke="#000000" stroke-width="1" stroke-opacity="0"></use></g></g><g><use xlink:href="#atLUeGZuW" opacity="1" fill="#000000" fill-opacity="1"></use><g><use xlink:href="#atLUeGZuW" opacity="1" fill-opacity="0" stroke="#000000" stroke-width="1" stroke-opacity="0"></use></g></g><g><use xlink:href="#a5SfAmIep" opacity="1" fill="#000000" fill-opacity="0"></use><g><use xlink:href="#a5SfAmIep" opacity="1" fill-opacity="0" stroke="#000000" stroke-width="1" stroke-opacity="0"></use></g></g><g><use xlink:href="#e14XlxynP4" opacity="1" fill="url(#gradienta3GkOjAhUF)"></use><g><use xlink:href="#e14XlxynP4" opacity="1" fill-opacity="0" stroke="#000000" stroke-width="1" stroke-opacity="0"></use></g></g><g><use xlink:href="#ahjNlc5th" opacity="1" fill="url(#gradienta3iAfa3XTR)"></use><g><use xlink:href="#ahjNlc5th" opacity="1" fill-opacity="0" stroke="#000000" stroke-width="1" stroke-opacity="0"></use></g></g><g><use xlink:href="#b8W15dP7r" opacity="1" fill="#fff600" fill-opacity="1"></use><g><use xlink:href="#b8W15dP7r" opacity="1" fill-opacity="0" stroke="#000000" stroke-width="1" stroke-opacity="0"></use></g></g><g><use xlink:href="#a2mkMugy0b" opacity="1" fill="#fcff12" fill-opacity="1"></use><g><use xlink:href="#a2mkMugy0b" opacity="1" fill-opacity="0" stroke="#000000" stroke-width="1" stroke-opacity="0"></use></g></g></g></g></svg>