<?xml version="1.0" encoding="UTF-8" standalone="no"?>
<!DOCTYPE svg PUBLIC "-//W3C//DTD SVG 1.1//EN" "http://www.w3.org/Graphics/SVG/1.1/DTD/svg11.dtd">
<svg version="1.1" xmlns="http://www.w3.org/2000/svg" xmlns:xlink="http://www.w3.org/1999/xlink" preserveAspectRatio="xMidYMid meet" viewBox="0 0 639 162" width="639" height="162"><defs><path d="M559.09 -0.3C514.9 -0.3 479.09 35.98 479.09 80.73C479.09 125.49 514.9 161.77 559.09 161.77C603.27 161.77 639.09 125.49 639.09 80.73C639.09 35.98 603.27 -0.3 559.09 -0.3Z" id="aEMZoKD5"></path><path d="M558 -0.37C558 -0.37 558 -0.37 558 -0.37C558 96.88 558 150.91 558 161.71C558 161.71 558 161.71 558 161.71C223.2 161.71 37.2 161.71 0 161.71C0 161.71 0 161.71 0 161.71C0 64.47 0 10.44 0 -0.37C0 -0.37 0 -0.37 0 -0.37C334.8 -0.37 520.8 -0.37 558 -0.37Z" id="c2VO6uxErb"></path><path d="M558 1.84C558 1.84 558 1.84 558 1.84C558 96.3 558 148.78 558 159.28C558 159.28 558 159.28 558 159.28C223.2 159.28 37.2 159.28 0 159.28C0 159.28 0 159.28 0 159.28C0 64.81 0 12.33 0 1.84C0 1.84 0 1.84 0 1.84C334.8 1.84 520.8 1.84 558 1.84Z" id="cMvpMblCK"></path><linearGradient id="gradienta8weg124l8" gradientUnits="userSpaceOnUse" x1="222.29" y1="-109.79" x2="437.36" y2="-85.94"><stop style="stop-color: #fff841;stop-opacity: 1" offset="0%"></stop><stop style="stop-color: #fffa42;stop-opacity: 1" offset="33.56704531994784%"></stop><stop style="stop-color: #fff600;stop-opacity: 1" offset="100%"></stop></linearGradient><path d="M558.45 1.84C514.82 1.84 479.45 37.08 479.45 80.56C479.45 124.04 514.82 159.28 558.45 159.28C602.08 159.28 637.45 124.04 637.45 80.56C637.45 37.08 602.08 1.84 558.45 1.84Z" id="a3D0o4hpEO"></path></defs><g><g><g><use xlink:href="#aEMZoKD5" opacity="1" fill="#000000" fill-opacity="1"></use><g><use xlink:href="#aEMZoKD5" opacity="1" fill-opacity="0" stroke="#000000" stroke-width="1" stroke-opacity="0"></use></g></g><g><use xlink:href="#c2VO6uxErb" opacity="1" fill="#000000" fill-opacity="1"></use><g><use xlink:href="#c2VO6uxErb" opacity="1" fill-opacity="0" stroke="#000000" stroke-width="1" stroke-opacity="0"></use></g></g><g><use xlink:href="#cMvpMblCK" opacity="1" fill="url(#gradienta8weg124l8)"></use><g><use xlink:href="#cMvpMblCK" opacity="1" fill-opacity="0" stroke="#000000" stroke-width="1" stroke-opacity="0"></use></g></g><g><use xlink:href="#a3D0o4hpEO" opacity="1" fill="#fff600" fill-opacity="1"></use><g><use xlink:href="#a3D0o4hpEO" opacity="1" fill-opacity="0" stroke="#000000" stroke-width="1" stroke-opacity="0"></use></g></g></g></g></svg>